<svg width="1033" height="218" viewBox="0 0 1033 218" fill="none" xmlns="http://www.w3.org/2000/svg">
<g clip-path="url(#clip0_23_2)">
<path d="M7.92614 60.0938V43.0909H109.24V60.0938H68.3949V174H48.7074V60.0938H7.92614ZM158.171 175.982C148.498 175.982 140.167 173.915 133.178 169.781C126.232 165.605 120.863 159.746 117.07 152.203C113.32 144.618 111.445 135.733 111.445 125.548C111.445 115.491 113.32 106.628 117.07 98.9574C120.863 91.2869 126.147 85.2997 132.923 80.9957C139.741 76.6918 147.71 74.5398 156.829 74.5398C162.369 74.5398 167.738 75.456 172.937 77.2884C178.136 79.1207 182.802 81.9972 186.935 85.9176C191.069 89.8381 194.329 94.9304 196.715 101.195C199.102 107.416 200.295 114.98 200.295 123.886V130.662H122.248V116.344H181.566C181.566 111.315 180.543 106.862 178.498 102.984C176.452 99.0639 173.576 95.9744 169.869 93.7159C166.204 91.4574 161.9 90.3281 156.957 90.3281C151.587 90.3281 146.9 91.6491 142.894 94.2912C138.931 96.8906 135.863 100.3 133.69 104.518C131.559 108.695 130.494 113.233 130.494 118.134V129.32C130.494 135.882 131.644 141.464 133.945 146.067C136.289 150.669 139.549 154.185 143.725 156.614C147.901 159 152.781 160.193 158.363 160.193C161.985 160.193 165.288 159.682 168.271 158.659C171.254 157.594 173.832 156.017 176.005 153.929C178.178 151.841 179.84 149.263 180.991 146.195L199.08 149.455C197.631 154.781 195.032 159.447 191.282 163.453C187.575 167.416 182.908 170.506 177.283 172.722C171.701 174.895 165.33 175.982 158.171 175.982ZM240.613 43.0909V174H221.5V43.0909H240.613ZM307.681 175.982C298.477 175.982 290.444 173.872 283.583 169.653C276.722 165.435 271.396 159.533 267.603 151.947C263.81 144.362 261.914 135.499 261.914 125.357C261.914 115.172 263.81 106.266 267.603 98.6378C271.396 91.0099 276.722 85.0866 283.583 80.8679C290.444 76.6491 298.477 74.5398 307.681 74.5398C316.886 74.5398 324.918 76.6491 331.779 80.8679C338.64 85.0866 343.967 91.0099 347.759 98.6378C351.552 106.266 353.448 115.172 353.448 125.357C353.448 135.499 351.552 144.362 347.759 151.947C343.967 159.533 338.64 165.435 331.779 169.653C324.918 173.872 316.886 175.982 307.681 175.982ZM307.745 159.938C313.711 159.938 318.654 158.361 322.575 155.207C326.495 152.054 329.393 147.857 331.268 142.615C333.185 137.374 334.144 131.599 334.144 125.293C334.144 119.028 333.185 113.276 331.268 108.034C329.393 102.75 326.495 98.5099 322.575 95.3139C318.654 92.1179 313.711 90.5199 307.745 90.5199C301.737 90.5199 296.751 92.1179 292.788 95.3139C288.867 98.5099 285.948 102.75 284.031 108.034C282.156 113.276 281.218 119.028 281.218 125.293C281.218 131.599 282.156 137.374 284.031 142.615C285.948 147.857 288.867 152.054 292.788 155.207C296.751 158.361 301.737 159.938 307.745 159.938Z" fill="black"/>
<path d="M540.848 210.818V75.8182H559.513V91.7344H561.111C562.219 89.6889 563.817 87.3239 565.905 84.6392C567.993 81.9545 570.891 79.6108 574.598 77.608C578.305 75.5625 583.206 74.5398 589.3 74.5398C597.226 74.5398 604.3 76.5426 610.521 80.5483C616.743 84.554 621.622 90.3281 625.159 97.8707C628.739 105.413 630.528 114.49 630.528 125.101C630.528 135.712 628.76 144.81 625.223 152.395C621.686 159.937 616.828 165.754 610.649 169.845C604.47 173.893 597.418 175.918 589.491 175.918C583.526 175.918 578.646 174.916 574.854 172.913C571.104 170.911 568.163 168.567 566.033 165.882C563.902 163.197 562.261 160.811 561.111 158.723H559.96V210.818H540.848ZM559.577 124.909C559.577 131.812 560.578 137.864 562.581 143.062C564.584 148.261 567.482 152.331 571.274 155.271C575.067 158.169 579.712 159.618 585.209 159.618C590.919 159.618 595.692 158.105 599.527 155.08C603.362 152.011 606.26 147.857 608.22 142.615C610.223 137.374 611.224 131.472 611.224 124.909C611.224 118.432 610.244 112.615 608.284 107.459C606.366 102.303 603.469 98.233 599.591 95.25C595.756 92.267 590.962 90.7756 585.209 90.7756C579.669 90.7756 574.982 92.2031 571.146 95.0582C567.354 97.9133 564.477 101.898 562.517 107.011C560.557 112.125 559.577 118.091 559.577 124.909ZM671.054 43.0909V174H651.942V43.0909H671.054ZM738.123 175.982C728.918 175.982 720.885 173.872 714.025 169.653C707.164 165.435 701.837 159.533 698.044 151.947C694.252 144.362 692.355 135.499 692.355 125.357C692.355 115.172 694.252 106.266 698.044 98.6378C701.837 91.0099 707.164 85.0866 714.025 80.8679C720.885 76.6491 728.918 74.5398 738.123 74.5398C747.327 74.5398 755.36 76.6491 762.221 80.8679C769.081 85.0866 774.408 91.0099 778.201 98.6378C781.993 106.266 783.89 115.172 783.89 125.357C783.89 135.499 781.993 144.362 778.201 151.947C774.408 159.533 769.081 165.435 762.221 169.653C755.36 173.872 747.327 175.982 738.123 175.982ZM738.186 159.938C744.152 159.938 749.096 158.361 753.016 155.207C756.936 152.054 759.834 147.857 761.709 142.615C763.627 137.374 764.586 131.599 764.586 125.293C764.586 119.028 763.627 113.276 761.709 108.034C759.834 102.75 756.936 98.5099 753.016 95.3139C749.096 92.1179 744.152 90.5199 738.186 90.5199C732.178 90.5199 727.192 92.1179 723.229 95.3139C719.309 98.5099 716.39 102.75 714.472 108.034C712.597 113.276 711.659 119.028 711.659 125.293C711.659 131.599 712.597 137.374 714.472 142.615C716.39 147.857 719.309 152.054 723.229 155.207C727.192 158.361 732.178 159.938 738.186 159.938ZM805.223 174V75.8182H823.696V91.4148H824.719C826.509 86.1307 829.662 81.9758 834.179 78.9503C838.739 75.8821 843.895 74.348 849.648 74.348C850.841 74.348 852.247 74.3906 853.866 74.4759C855.528 74.5611 856.828 74.6676 857.766 74.7955V93.0767C856.999 92.8636 855.635 92.6293 853.675 92.3736C851.714 92.0753 849.754 91.9261 847.794 91.9261C843.277 91.9261 839.25 92.8849 835.713 94.8026C832.219 96.6776 829.449 99.2983 827.403 102.665C825.358 105.989 824.335 109.781 824.335 114.043V174H805.223ZM913.105 175.982C903.431 175.982 895.1 173.915 888.112 169.781C881.166 165.605 875.797 159.746 872.004 152.203C868.254 144.618 866.379 135.733 866.379 125.548C866.379 115.491 868.254 106.628 872.004 98.9574C875.797 91.2869 881.081 85.2997 887.856 80.9957C894.674 76.6918 902.643 74.5398 911.762 74.5398C917.302 74.5398 922.672 75.456 927.87 77.2884C933.069 79.1207 937.735 81.9972 941.869 85.9176C946.002 89.8381 949.262 94.9304 951.649 101.195C954.035 107.416 955.228 114.98 955.228 123.886V130.662H877.181V116.344H936.5C936.5 111.315 935.477 106.862 933.431 102.984C931.386 99.0639 928.51 95.9744 924.802 93.7159C921.137 91.4574 916.833 90.3281 911.89 90.3281C906.521 90.3281 901.833 91.6491 897.828 94.2912C893.865 96.8906 890.797 100.3 888.623 104.518C886.493 108.695 885.427 113.233 885.427 118.134V129.32C885.427 135.882 886.578 141.464 888.879 146.067C891.223 150.669 894.483 154.185 898.659 156.614C902.835 159 907.714 160.193 913.297 160.193C916.919 160.193 920.221 159.682 923.204 158.659C926.187 157.594 928.765 156.017 930.939 153.929C933.112 151.841 934.774 149.263 935.924 146.195L954.014 149.455C952.565 154.781 949.966 159.447 946.216 163.453C942.508 167.416 937.842 170.506 932.217 172.722C926.635 174.895 920.264 175.982 913.105 175.982ZM976.434 174V75.8182H994.907V91.4148H995.93C997.719 86.1307 1000.87 81.9758 1005.39 78.9503C1009.95 75.8821 1015.11 74.348 1020.86 74.348C1022.05 74.348 1023.46 74.3906 1025.08 74.4759C1026.74 74.5611 1028.04 74.6676 1028.98 74.7955V93.0767C1028.21 92.8636 1026.85 92.6293 1024.89 92.3736C1022.93 92.0753 1020.97 91.9261 1019 91.9261C1014.49 91.9261 1010.46 92.8849 1006.92 94.8026C1003.43 96.6776 1000.66 99.2983 998.614 102.665C996.569 105.989 995.546 109.781 995.546 114.043V174H976.434Z" fill="black"/>
<path d="M390.133 35.5345C384.998 30.6532 376.878 30.7318 371.839 35.7706C366.8 40.8093 366.722 48.9293 371.603 54.0644L371.839 54.3068L375.269 57.7373L393.806 39.201L390.375 35.7706L390.133 35.5345Z" fill="#FF6600"/>
<path d="M432.206 77.6016C440.296 85.6913 441.268 97.1107 442.138 103.715L438.247 107.606C430.977 106.275 421.247 103.715 413.67 96.1378L379.724 62.1917L398.26 43.6555L432.206 77.6016Z" fill="black"/>
<path d="M390.133 173.022C384.998 177.903 376.878 177.825 371.839 172.786C366.8 167.747 366.722 159.627 371.603 154.492L371.839 154.25L375.269 150.819L393.806 169.355L390.375 172.786L390.133 173.022Z" fill="#FF6600"/>
<path d="M432.206 130.955C440.296 122.865 441.268 111.446 442.138 104.842L438.247 100.95C430.977 102.282 421.247 104.842 413.67 112.419L379.724 146.365L398.26 164.901L432.206 130.955Z" fill="black"/>
<path d="M490.867 35.5345C496.002 30.6532 504.122 30.7318 509.161 35.7706C514.2 40.8093 514.278 48.9293 509.397 54.0644L509.161 54.3068L505.731 57.7373L487.194 39.201L490.625 35.7706L490.867 35.5345Z" fill="#FF6600"/>
<path d="M448.794 77.6016C440.704 85.6913 439.732 97.1107 438.862 103.715L442.753 107.606C450.023 106.275 459.753 103.715 467.33 96.1378L501.276 62.1917L482.74 43.6555L448.794 77.6016Z" fill="black"/>
<path d="M490.867 173.022C496.002 177.903 504.122 177.825 509.161 172.786C514.2 167.747 514.278 159.627 509.397 154.492L509.161 154.25L505.731 150.819L487.194 169.355L490.625 172.786L490.867 173.022Z" fill="#FF6600"/>
<path d="M448.794 130.955C440.704 122.865 439.732 111.446 438.862 104.842L442.753 100.95C450.023 102.282 459.753 104.842 467.33 112.419L501.276 146.365L482.74 164.901L448.794 130.955Z" fill="black"/>
</g>
<defs>
<clipPath id="clip0_23_2">
<rect width="1033" height="218" fill="white"/>
</clipPath>
</defs>
</svg>
